<?xml version="1.0" encoding="UTF-8"?><svg id="Layer_2" xmlns="http://www.w3.org/2000/svg" viewBox="0 0 129.81 34.83"><defs><style>.cls-1{fill:#100d0f;}</style></defs><g id="WordMark_and_Logo"><path class="cls-1" d="M19.24,11.33l-3.93,14.21s-1.49-.06-4.26-.06-4.41.06-4.41.06l-3.87-14.21C1.64,7.16,1.1,5.34,0,4.27c0,0,1.1.06,4.41.06s4.59-.06,4.59-.06c-.39.27-.95.77-.95,1.88,0,1.04.45,2.77.98,4.97l2.38,9.77c.18.78.33,1.82.36,1.97.03-.15.18-1.13.39-1.94l2.41-9.8c.54-2.23.95-3.93.95-4.97,0-1.1-.57-1.61-.95-1.88,0,0,1.22.06,3.96.06,2.56,0,3.54-.06,3.54-.06-1.1,1.07-1.67,2.89-2.83,7.06Z"/><path class="cls-1" d="M31.45,25.89c-6.85,0-10.22-3.72-10.22-10.69s3.54-11.17,10.16-11.17,10.22,3.72,10.22,10.69-3.54,11.17-10.16,11.17ZM31.45,7.52c-2.92,0-3.66,2.53-3.66,7.48s.74,7.42,3.6,7.42,3.66-2.53,3.66-7.48-.75-7.42-3.6-7.42Z"/><path class="cls-1" d="M59.29,25.74c-2.65,0-3.84-.57-5.3-3.34l-1.4-2.65c-1.16-2.21-1.43-2.86-2.41-2.86-.24,0-.42.03-.42.03,0,7.03.18,7.03.74,8.1l.27.51s-1.22-.06-3.9-.06-3.9.06-3.9.06l.27-.51c.57-1.07.75-1.34.75-10.28s-.12-8.79-.75-9.98l-.27-.51s1.31.06,3.04.06c1.01,0,3.72-.06,4.68-.06,5.12,0,9.77.21,9.77,5.54s-4.05,5.75-5.84,5.9c2.08.3,3.01,1.13,4.17,3.48l1.73,3.51c.69,1.4,1.1,1.94,2.12,2.41,0,0-.54.62-3.34.62ZM50.81,7.31c-.77,0-1.04.06-1.04.06v6.46s.27.03,1.1.03c.6,0,1.1-.06,1.58-.21,1.13-.36,1.88-1.22,1.88-3.07,0-2.65-1.28-3.28-3.51-3.28Z"/><path class="cls-1" d="M83.89,4.78c-.54,1.04-.74,1.34-.74,10.28v10.48s-.86-.06-3.01-.06c-2.29,0-4.14.06-4.14.06l-6.05-13.28c-.51-1.1-.83-2.23-.86-2.35v5.15c0,8.67.12,8.79.74,9.98l.27.51s-.95-.06-3.13-.06c-2.32,0-3.22.06-3.22.06l.27-.51c.54-1.04.74-1.34.74-10.28s-.12-8.79-.74-9.98l-.27-.51s1.28.06,4.29.06c2.56,0,3.9-.06,3.9-.06l6.02,13.22c.6,1.28.86,2.41.86,2.41v-5.15c0-8.67-.12-8.79-.74-9.98l-.27-.51s.95.06,3.13.06c2.32,0,3.22-.06,3.22-.06l-.27.51Z"/><path class="cls-1" d="M102.4,25.48c-2.38,0-4.38.06-4.38.06.39-.27.95-.77.95-1.88,0-.89-.33-2.2-.71-3.81l-.24-.98h-5.87l-.24.98c-.39,1.61-.75,2.92-.75,3.81,0,1.1.57,1.61.95,1.88,0,0-1.52-.06-3.66-.06s-3.49.06-3.49.06c1.1-1.07,1.64-2.89,2.77-7.06l3.37-12.42c.09-.36.18-.71.18-1.1s-.15-.57-.21-.63h10.01s-.18.21-.18.63c0,.39.06.75.15,1.1l3.1,12.42c1.04,4.2,1.55,5.99,2.65,7.06,0,0-1.76-.06-4.41-.06ZM95.49,8.17c-.3-1.28-.39-1.97-.42-2.17-.03.15-.09.78-.42,2.17l-1.7,7.27h4.26l-1.73-7.27Z"/><path class="cls-1" d="M128.42,4.78c-.54,1.04-.74,1.34-.74,10.28v10.48s-.86-.06-3.01-.06c-2.29,0-4.14.06-4.14.06l-6.05-13.28c-.51-1.1-.83-2.23-.86-2.35v5.15c0,8.67.12,8.79.74,9.98l.27.51s-.95-.06-3.13-.06c-2.32,0-3.22.06-3.22.06l.27-.51c.54-1.04.74-1.34.74-10.28s-.12-8.79-.74-9.98l-.27-.51s1.28.06,4.29.06c2.56,0,3.9-.06,3.9-.06l6.02,13.22c.6,1.28.86,2.41.86,2.41v-5.15c0-8.67-.12-8.79-.74-9.98l-.27-.51s.95.06,3.13.06c2.32,0,3.22-.06,3.22-.06l-.27.51Z"/></g></svg>